REM COMMENT "fre:ac - free audio converter <https://www.freac.org/>"
PERFORMER "Edgar Allan Poe"
TITLE "The Raven"
FILE "raven_e_cuesheet.flac" WAVE
  TRACK 01 AUDIO
    TITLE "01-raven_e"
    INDEX 01 00:00:00
  TRACK 02 AUDIO
    TITLE "02-raven_e"
    INDEX 01 00:04:57
  TRACK 03 AUDIO
    TITLE "03-raven_e"
    INDEX 01 00:07:74
  TRACK 04 AUDIO
    TITLE "04-raven_e"
    INDEX 01 00:09:36
  TRACK 05 AUDIO
    TITLE "05-raven_e"
    INDEX 01 00:11:44
  TRACK 06 AUDIO
    TITLE "06-raven_e"
    INDEX 01 00:13:67
  TRACK 07 AUDIO
    TITLE "07-raven_e"
    INDEX 01 00:16:01
  TRACK 08 AUDIO
    TITLE "08-raven_e"
    INDEX 01 00:18:37
  TRACK 09 AUDIO
    TITLE "09-raven_e"
    INDEX 01 00:21:03
  TRACK 10 AUDIO
    TITLE "10-raven_e"
    INDEX 01 00:22:43
